<mxfile host="Electron" agent="Mozilla/5.0 (Windows NT 10.0; Win64; x64) AppleWebKit/537.36 (KHTML, like Gecko) draw.io/24.7.8 Chrome/128.0.6613.36 Electron/32.0.1 Safari/537.36" version="24.7.8">
  <diagram name="Page-1" id="6EpXBswcXc_2nSGCB2kB">
    <mxGraphModel dx="4400" dy="3829" grid="1" gridSize="10" guides="1" tooltips="1" connect="1" arrows="1" fold="1" page="1" pageScale="1" pageWidth="827" pageHeight="1169" math="0" shadow="0">
      <root>
        <mxCell id="0" />
        <mxCell id="1" parent="0" />
        <mxCell id="nt7VSNk9N1rP-UHrFB_A-1" value="&lt;h1 style=&quot;margin-top: 0px;&quot;&gt;&lt;span style=&quot;font-weight: 400;&quot;&gt;&lt;font face=&quot;Georgia&quot; style=&quot;font-size: 18px;&quot;&gt;Technologies utilisées :&lt;/font&gt;&lt;/span&gt;&lt;br&gt;&lt;/h1&gt;&lt;p&gt;&lt;font style=&quot;font-size: 14px;&quot;&gt;• Langage de programmation : Python&lt;br&gt;• Framework Backend : Django&lt;br&gt;• Framework Frontend : Bootstrap&lt;br&gt;• Base de données : PostgreSQL&lt;/font&gt;&lt;br&gt;&lt;/p&gt;" style="text;html=1;whiteSpace=wrap;overflow=hidden;rounded=0;fillColor=#647687;strokeColor=#314354;fontColor=#ffffff;" parent="1" vertex="1">
          <mxGeometry x="430" y="-210" width="420" height="180" as="geometry" />
        </mxCell>
        <mxCell id="E1ATxUVlbsIixP8MoIlE-1" value="&lt;font style=&quot;font-size: 20px;&quot;&gt;Administration&lt;/font&gt;" style="swimlane;whiteSpace=wrap;html=1;" parent="1" vertex="1">
          <mxGeometry x="154" y="630" width="260" height="260" as="geometry" />
        </mxCell>
        <mxCell id="E1ATxUVlbsIixP8MoIlE-4" value="&lt;span style=&quot;font-size: 16px;&quot;&gt;string dateIntervention&lt;/span&gt;" style="text;html=1;align=center;verticalAlign=middle;whiteSpace=wrap;rounded=0;" parent="E1ATxUVlbsIixP8MoIlE-1" vertex="1">
          <mxGeometry y="40" width="260" height="30" as="geometry" />
        </mxCell>
        <mxCell id="E1ATxUVlbsIixP8MoIlE-14" value="&lt;span style=&quot;font-size: 16px;&quot;&gt;string Infrastructure&lt;/span&gt;" style="text;html=1;align=center;verticalAlign=middle;whiteSpace=wrap;rounded=0;" parent="E1ATxUVlbsIixP8MoIlE-1" vertex="1">
          <mxGeometry y="80" width="260" height="30" as="geometry" />
        </mxCell>
        <mxCell id="E1ATxUVlbsIixP8MoIlE-15" value="&lt;span style=&quot;font-size: 16px;&quot;&gt;string Lieu&lt;/span&gt;" style="text;html=1;align=center;verticalAlign=middle;whiteSpace=wrap;rounded=0;" parent="E1ATxUVlbsIixP8MoIlE-1" vertex="1">
          <mxGeometry y="110" width="260" height="30" as="geometry" />
        </mxCell>
        <mxCell id="E1ATxUVlbsIixP8MoIlE-16" value="&lt;span style=&quot;font-size: 16px;&quot;&gt;string description&lt;/span&gt;" style="text;html=1;align=center;verticalAlign=middle;whiteSpace=wrap;rounded=0;" parent="E1ATxUVlbsIixP8MoIlE-1" vertex="1">
          <mxGeometry y="140" width="260" height="30" as="geometry" />
        </mxCell>
        <mxCell id="E1ATxUVlbsIixP8MoIlE-17" value="&lt;span style=&quot;font-size: 16px;&quot;&gt;boolean urgent&lt;/span&gt;" style="text;html=1;align=center;verticalAlign=middle;whiteSpace=wrap;rounded=0;" parent="E1ATxUVlbsIixP8MoIlE-1" vertex="1">
          <mxGeometry y="170" width="260" height="30" as="geometry" />
        </mxCell>
        <mxCell id="E1ATxUVlbsIixP8MoIlE-25" value="&lt;span style=&quot;font-size: 16px;&quot;&gt;string DateEnreg&lt;/span&gt;" style="text;html=1;align=center;verticalAlign=middle;whiteSpace=wrap;rounded=0;" parent="E1ATxUVlbsIixP8MoIlE-1" vertex="1">
          <mxGeometry x="30" y="200" width="200" height="30" as="geometry" />
        </mxCell>
        <mxCell id="E1ATxUVlbsIixP8MoIlE-7" value="" style="whiteSpace=wrap;html=1;aspect=fixed;" parent="1" vertex="1">
          <mxGeometry x="480" y="50" width="1670" height="1670" as="geometry" />
        </mxCell>
        <mxCell id="E1ATxUVlbsIixP8MoIlE-9" value="&lt;font style=&quot;font-size: 20px;&quot;&gt;Citoyen&lt;/font&gt;" style="swimlane;whiteSpace=wrap;html=1;" parent="1" vertex="1">
          <mxGeometry x="150" y="200" width="260" height="260" as="geometry" />
        </mxCell>
        <mxCell id="E1ATxUVlbsIixP8MoIlE-10" value="&lt;span style=&quot;font-size: 16px;&quot;&gt;string Infrastructure&lt;/span&gt;" style="text;html=1;align=center;verticalAlign=middle;whiteSpace=wrap;rounded=0;" parent="E1ATxUVlbsIixP8MoIlE-9" vertex="1">
          <mxGeometry y="40" width="260" height="30" as="geometry" />
        </mxCell>
        <mxCell id="E1ATxUVlbsIixP8MoIlE-11" value="&lt;span style=&quot;font-size: 16px;&quot;&gt;string Lieu&lt;/span&gt;" style="text;html=1;align=center;verticalAlign=middle;whiteSpace=wrap;rounded=0;" parent="E1ATxUVlbsIixP8MoIlE-9" vertex="1">
          <mxGeometry y="70" width="260" height="30" as="geometry" />
        </mxCell>
        <mxCell id="E1ATxUVlbsIixP8MoIlE-12" value="&lt;span style=&quot;font-size: 16px;&quot;&gt;string description&lt;/span&gt;" style="text;html=1;align=center;verticalAlign=middle;whiteSpace=wrap;rounded=0;" parent="E1ATxUVlbsIixP8MoIlE-9" vertex="1">
          <mxGeometry y="100" width="260" height="30" as="geometry" />
        </mxCell>
        <mxCell id="E1ATxUVlbsIixP8MoIlE-13" value="&lt;span style=&quot;font-size: 16px;&quot;&gt;boolean urgent&lt;/span&gt;" style="text;html=1;align=center;verticalAlign=middle;whiteSpace=wrap;rounded=0;" parent="E1ATxUVlbsIixP8MoIlE-9" vertex="1">
          <mxGeometry y="130" width="260" height="30" as="geometry" />
        </mxCell>
        <mxCell id="E1ATxUVlbsIixP8MoIlE-18" value="&lt;font style=&quot;font-size: 19px;&quot;&gt;Infrastructures&lt;/font&gt;" style="swimlane;whiteSpace=wrap;html=1;" parent="1" vertex="1">
          <mxGeometry x="1150" y="490" width="200" height="270" as="geometry" />
        </mxCell>
        <mxCell id="E1ATxUVlbsIixP8MoIlE-22" value="&lt;span style=&quot;font-size: 16px;&quot;&gt;varchar InfratsEtat&lt;/span&gt;" style="text;html=1;align=center;verticalAlign=middle;whiteSpace=wrap;rounded=0;" parent="E1ATxUVlbsIixP8MoIlE-18" vertex="1">
          <mxGeometry y="150" width="200" height="30" as="geometry" />
        </mxCell>
        <mxCell id="E1ATxUVlbsIixP8MoIlE-20" value="&lt;span style=&quot;font-size: 16px;&quot;&gt;varchar InfratsNom&lt;/span&gt;" style="text;html=1;align=center;verticalAlign=middle;whiteSpace=wrap;rounded=0;" parent="1" vertex="1">
          <mxGeometry x="1150" y="550" width="200" height="30" as="geometry" />
        </mxCell>
        <mxCell id="E1ATxUVlbsIixP8MoIlE-21" value="&lt;span style=&quot;font-size: 16px;&quot;&gt;varchar InfratsLocalition&lt;/span&gt;" style="text;html=1;align=center;verticalAlign=middle;whiteSpace=wrap;rounded=0;" parent="1" vertex="1">
          <mxGeometry x="1150" y="580" width="200" height="30" as="geometry" />
        </mxCell>
        <mxCell id="E1ATxUVlbsIixP8MoIlE-23" value="&lt;span style=&quot;font-size: 16px;&quot;&gt;varchar InfratsDescrip&lt;/span&gt;" style="text;html=1;align=center;verticalAlign=middle;whiteSpace=wrap;rounded=0;" parent="1" vertex="1">
          <mxGeometry x="1150" y="610" width="200" height="30" as="geometry" />
        </mxCell>
        <mxCell id="E1ATxUVlbsIixP8MoIlE-24" value="&lt;span style=&quot;font-size: 16px;&quot;&gt;date InfratsDateEnrg&lt;/span&gt;" style="text;html=1;align=center;verticalAlign=middle;whiteSpace=wrap;rounded=0;" parent="1" vertex="1">
          <mxGeometry x="1150" y="670" width="200" height="30" as="geometry" />
        </mxCell>
        <mxCell id="E1ATxUVlbsIixP8MoIlE-26" value="&lt;font style=&quot;font-size: 19px;&quot;&gt;Administration&lt;/font&gt;" style="swimlane;whiteSpace=wrap;html=1;" parent="1" vertex="1">
          <mxGeometry x="580" y="540" width="200" height="190" as="geometry" />
        </mxCell>
        <mxCell id="E1ATxUVlbsIixP8MoIlE-27" value="&lt;span style=&quot;font-size: 16px;&quot;&gt;primary key&amp;nbsp;&lt;/span&gt;&lt;span style=&quot;font-size: 16px;&quot;&gt;Id_admin&lt;/span&gt;" style="text;html=1;align=center;verticalAlign=middle;whiteSpace=wrap;rounded=0;" parent="E1ATxUVlbsIixP8MoIlE-26" vertex="1">
          <mxGeometry y="30" width="200" height="30" as="geometry" />
        </mxCell>
        <mxCell id="E1ATxUVlbsIixP8MoIlE-28" value="&lt;span style=&quot;font-size: 16px;&quot;&gt;varchar adminNom&lt;/span&gt;" style="text;html=1;align=center;verticalAlign=middle;whiteSpace=wrap;rounded=0;" parent="E1ATxUVlbsIixP8MoIlE-26" vertex="1">
          <mxGeometry y="60" width="200" height="30" as="geometry" />
        </mxCell>
        <mxCell id="E1ATxUVlbsIixP8MoIlE-29" value="&lt;span style=&quot;font-size: 16px;&quot;&gt;varchar adminPrenom&lt;/span&gt;" style="text;html=1;align=center;verticalAlign=middle;whiteSpace=wrap;rounded=0;" parent="E1ATxUVlbsIixP8MoIlE-26" vertex="1">
          <mxGeometry y="90" width="200" height="30" as="geometry" />
        </mxCell>
        <mxCell id="E1ATxUVlbsIixP8MoIlE-30" value="&lt;span style=&quot;font-size: 16px;&quot;&gt;varchar adminEmail&lt;/span&gt;" style="text;html=1;align=center;verticalAlign=middle;whiteSpace=wrap;rounded=0;" parent="E1ATxUVlbsIixP8MoIlE-26" vertex="1">
          <mxGeometry y="120" width="200" height="30" as="geometry" />
        </mxCell>
        <mxCell id="E1ATxUVlbsIixP8MoIlE-31" value="&lt;span style=&quot;font-size: 16px;&quot;&gt;varchar adminTel&lt;/span&gt;" style="text;html=1;align=center;verticalAlign=middle;whiteSpace=wrap;rounded=0;" parent="1" vertex="1">
          <mxGeometry x="580" y="690" width="200" height="30" as="geometry" />
        </mxCell>
        <mxCell id="E1ATxUVlbsIixP8MoIlE-32" value="&lt;span style=&quot;font-size: 16px;&quot;&gt;étrangère Id_admin&lt;/span&gt;" style="text;html=1;align=center;verticalAlign=middle;whiteSpace=wrap;rounded=0;" parent="1" vertex="1">
          <mxGeometry x="1150" y="730" width="200" height="30" as="geometry" />
        </mxCell>
        <mxCell id="E1ATxUVlbsIixP8MoIlE-38" value="&lt;font style=&quot;font-size: 18px;&quot;&gt;Interventions&lt;/font&gt;" style="swimlane;whiteSpace=wrap;html=1;" parent="1" vertex="1">
          <mxGeometry x="1630" y="520" width="200" height="200" as="geometry" />
        </mxCell>
        <mxCell id="E1ATxUVlbsIixP8MoIlE-45" value="&lt;span style=&quot;font-size: 16px;&quot;&gt;primary key Id_Intertns&lt;/span&gt;" style="text;html=1;align=center;verticalAlign=middle;whiteSpace=wrap;rounded=0;" parent="E1ATxUVlbsIixP8MoIlE-38" vertex="1">
          <mxGeometry y="20" width="200" height="30" as="geometry" />
        </mxCell>
        <mxCell id="E1ATxUVlbsIixP8MoIlE-46" value="&lt;span style=&quot;font-size: 16px;&quot;&gt;date&amp;nbsp; intertnsDate&lt;/span&gt;" style="text;html=1;align=center;verticalAlign=middle;whiteSpace=wrap;rounded=0;" parent="E1ATxUVlbsIixP8MoIlE-38" vertex="1">
          <mxGeometry y="60" width="200" height="30" as="geometry" />
        </mxCell>
        <mxCell id="E1ATxUVlbsIixP8MoIlE-44" value="&lt;span style=&quot;font-size: 16px;&quot;&gt;primary key&amp;nbsp;&lt;/span&gt;&lt;span style=&quot;font-size: 16px;&quot;&gt;Id_Infratrs&lt;/span&gt;" style="text;html=1;align=center;verticalAlign=middle;whiteSpace=wrap;rounded=0;" parent="1" vertex="1">
          <mxGeometry x="1150" y="520" width="200" height="30" as="geometry" />
        </mxCell>
        <mxCell id="E1ATxUVlbsIixP8MoIlE-47" value="&lt;span style=&quot;font-size: 16px;&quot;&gt;étrangère Id_admin&lt;/span&gt;" style="text;html=1;align=center;verticalAlign=middle;whiteSpace=wrap;rounded=0;" parent="1" vertex="1">
          <mxGeometry x="1630" y="680" width="200" height="30" as="geometry" />
        </mxCell>
        <mxCell id="E1ATxUVlbsIixP8MoIlE-49" value="" style="endArrow=classic;html=1;rounded=0;exitX=1;exitY=0.75;exitDx=0;exitDy=0;entryX=0;entryY=0.5;entryDx=0;entryDy=0;strokeWidth=4;" parent="1" source="E1ATxUVlbsIixP8MoIlE-13" target="E1ATxUVlbsIixP8MoIlE-20" edge="1">
          <mxGeometry width="50" height="50" relative="1" as="geometry">
            <mxPoint x="660" y="650" as="sourcePoint" />
            <mxPoint x="710" y="600" as="targetPoint" />
          </mxGeometry>
        </mxCell>
        <mxCell id="E1ATxUVlbsIixP8MoIlE-50" value="" style="endArrow=classic;html=1;rounded=0;exitX=1;exitY=0;exitDx=0;exitDy=0;entryX=0;entryY=0.25;entryDx=0;entryDy=0;strokeWidth=4;" parent="1" source="E1ATxUVlbsIixP8MoIlE-16" target="E1ATxUVlbsIixP8MoIlE-29" edge="1">
          <mxGeometry width="50" height="50" relative="1" as="geometry">
            <mxPoint x="660" y="650" as="sourcePoint" />
            <mxPoint x="710" y="600" as="targetPoint" />
          </mxGeometry>
        </mxCell>
        <mxCell id="E1ATxUVlbsIixP8MoIlE-51" value="" style="endArrow=classic;html=1;rounded=0;exitX=1;exitY=0.5;exitDx=0;exitDy=0;entryX=0;entryY=0.5;entryDx=0;entryDy=0;strokeWidth=4;" parent="1" source="E1ATxUVlbsIixP8MoIlE-27" target="E1ATxUVlbsIixP8MoIlE-32" edge="1">
          <mxGeometry width="50" height="50" relative="1" as="geometry">
            <mxPoint x="424" y="780" as="sourcePoint" />
            <mxPoint x="590" y="648" as="targetPoint" />
          </mxGeometry>
        </mxCell>
        <mxCell id="E1ATxUVlbsIixP8MoIlE-52" value="" style="endArrow=classic;html=1;rounded=0;exitX=1;exitY=0.5;exitDx=0;exitDy=0;entryX=0;entryY=0.5;entryDx=0;entryDy=0;strokeWidth=4;" parent="1" target="E1ATxUVlbsIixP8MoIlE-47" edge="1">
          <mxGeometry width="50" height="50" relative="1" as="geometry">
            <mxPoint x="1350" y="530" as="sourcePoint" />
            <mxPoint x="1720" y="690" as="targetPoint" />
          </mxGeometry>
        </mxCell>
        <mxCell id="E1ATxUVlbsIixP8MoIlE-53" value="&lt;font style=&quot;font-size: 35px;&quot;&gt;&lt;u&gt;&lt;i&gt;Diagramme de class&lt;/i&gt;&lt;/u&gt;&lt;/font&gt;" style="text;html=1;align=center;verticalAlign=middle;whiteSpace=wrap;rounded=0;fillColor=#f5f5f5;gradientColor=#b3b3b3;strokeColor=#666666;" parent="1" vertex="1">
          <mxGeometry x="610" y="-560" width="1020" height="150" as="geometry" />
        </mxCell>
      </root>
    </mxGraphModel>
  </diagram>
</mxfile>
